<svg width="112" height="52" viewBox="0 0 112 52" fill="none" xmlns="http://www.w3.org/2000/svg">
<rect width="112" height="52" rx="8" fill="#AB23EB"/>
<path d="M49.98 19L43.9 30.3C43.3667 31.3 42.7267 32.0533 41.98 32.56C41.2467 33.0533 40.4467 33.3 39.58 33.3C38.8867 33.3 38.2 33.1533 37.52 32.86L38.16 30.82C38.7067 30.9933 39.16 31.08 39.52 31.08C40.36 31.08 41.0533 30.6467 41.6 29.78L41.82 29.44L36.24 19H39.02L43.16 27.22L47.42 19H49.98ZM58.838 27.44C60.158 27.84 60.818 28.6933 60.818 30C60.818 30.96 60.458 31.7 59.738 32.22C59.018 32.74 57.9513 33 56.538 33H51.098V22.32H56.318C57.6246 22.32 58.6446 22.56 59.378 23.04C60.1113 23.52 60.478 24.2 60.478 25.08C60.478 25.6267 60.3313 26.1 60.038 26.5C59.758 26.9 59.358 27.2133 58.838 27.44ZM53.478 26.78H56.098C57.3913 26.78 58.038 26.3333 58.038 25.44C58.038 24.5733 57.3913 24.14 56.098 24.14H53.478V26.78ZM56.338 31.18C57.7113 31.18 58.398 30.7333 58.398 29.84C58.398 29.3733 58.238 29.0267 57.918 28.8C57.598 28.56 57.098 28.44 56.418 28.44H53.478V31.18H56.338ZM63.4808 22.32H65.9808V33H63.4808V22.32ZM64.7408 20.56C64.2874 20.56 63.9074 20.42 63.6008 20.14C63.2941 19.8467 63.1408 19.4867 63.1408 19.06C63.1408 18.6333 63.2941 18.28 63.6008 18C63.9074 17.7067 64.2874 17.56 64.7408 17.56C65.1941 17.56 65.5741 17.7 65.8808 17.98C66.1874 18.2467 66.3408 18.5867 66.3408 19C66.3408 19.44 66.1874 19.8133 65.8808 20.12C65.5874 20.4133 65.2074 20.56 64.7408 20.56ZM69.3597 22.32H71.8597V29.36L77.7597 22.32H80.0397V33H77.5397V25.96L71.6597 33H69.3597V22.32ZM74.5397 21.06C73.4597 21.06 72.633 20.8133 72.0597 20.32C71.4997 19.8133 71.213 19.08 71.1997 18.12H72.8597C72.873 18.6 73.0197 18.98 73.2997 19.26C73.593 19.54 73.9997 19.68 74.5197 19.68C75.0264 19.68 75.4264 19.54 75.7197 19.26C76.0264 18.98 76.1864 18.6 76.1997 18.12H77.8997C77.8864 19.08 77.593 19.8133 77.0197 20.32C76.4464 20.8133 75.6197 21.06 74.5397 21.06ZM91.8627 24.44H88.1227V33H85.6227V24.44H81.8627V22.32H91.8627V24.44ZM93.6761 22.32H96.1761V29.36L102.076 22.32H104.356V33H101.856V25.96L95.9761 33H93.6761V22.32Z" fill="white"/>
<path d="M19.5 27.0815C11.9884 27.0815 7.85156 30.635 7.85156 37.0876C7.85156 37.5915 8.26001 38 8.76396 38H30.236C30.7399 38 31.1484 37.5915 31.1484 37.0876C31.1484 30.6353 27.0116 27.0815 19.5 27.0815ZM9.70957 36.1752C10.0685 31.3506 13.3577 28.9063 19.5 28.9063C25.6423 28.9063 28.9316 31.3506 29.2908 36.1752H9.70957Z" fill="white"/>
<path d="M19.5001 13C16.0496 13 13.4478 15.6542 13.4478 19.1737C13.4478 22.7962 16.1628 25.743 19.5001 25.743C22.8373 25.743 25.5524 22.7962 25.5524 19.174C25.5524 15.6542 22.9505 13 19.5001 13ZM19.5001 23.9185C17.1689 23.9185 15.2726 21.7901 15.2726 19.174C15.2726 16.6539 17.0505 14.8248 19.5001 14.8248C21.9104 14.8248 23.7275 16.6943 23.7275 19.174C23.7275 21.7901 21.8313 23.9185 19.5001 23.9185Z" fill="white"/>
</svg>
