<svg width="51" height="51" viewBox="0 0 51 51" fill="none" xmlns="http://www.w3.org/2000/svg">
<path d="M25.5002 0.106171C11.417 0.106171 0 11.5231 0 25.6063C0 38.2373 9.19331 48.6979 21.2472 50.7235V30.9263H15.0959V23.8022H21.2472V18.5491C21.2472 12.454 24.9699 9.13247 30.408 9.13247C33.0125 9.13247 35.2507 9.32655 35.9005 9.41203V15.783L32.1288 15.7849C29.1721 15.7849 28.602 17.1896 28.602 19.2517V23.7985H35.6571L34.737 30.9227H28.602V50.8938C41.2187 49.3583 51 38.6312 51 25.599C51 11.5231 39.583 0.106171 25.5002 0.106171Z" fill="#AB23EB"/>
</svg>
