<svg width="51" height="51" viewBox="0 0 51 51" fill="none" xmlns="http://www.w3.org/2000/svg">
<path d="M37.1947 0H13.8052C6.19289 0 0 6.19289 0 13.8052V37.1951C0 44.807 6.19289 50.9999 13.8052 50.9999H37.1951C44.807 50.9999 50.9999 44.807 50.9999 37.1951V13.8052C50.9999 6.19289 44.807 0 37.1947 0V0ZM48.0101 37.1951C48.0101 43.1584 43.1584 48.0101 37.1947 48.0101H13.8052C7.8415 48.0101 2.98983 43.1584 2.98983 37.1951V13.8052C2.98983 7.8415 7.8415 2.98983 13.8052 2.98983H37.1951C43.1584 2.98983 48.0101 7.8415 48.0101 13.8052V37.1951Z" fill="#AB23EB"/>
<path d="M25.5001 11.5551C17.8107 11.5551 11.5552 17.8106 11.5552 25.4999C11.5552 33.1893 17.8107 39.4448 25.5001 39.4448C33.1894 39.4448 39.445 33.1893 39.445 25.4999C39.445 17.8106 33.1894 11.5551 25.5001 11.5551ZM25.5001 36.455C19.4597 36.455 14.545 31.5407 14.545 25.4999C14.545 19.4596 19.4597 14.5449 25.5001 14.5449C31.5408 14.5449 36.4551 19.4596 36.4551 25.4999C36.4551 31.5407 31.5408 36.455 25.5001 36.455Z" fill="#AB23EB"/>
<path d="M39.7783 6.6026C37.5059 6.6026 35.6577 8.45121 35.6577 10.7232C35.6577 12.9955 37.5059 14.8441 39.7783 14.8441C42.0506 14.8441 43.8992 12.9955 43.8992 10.7232C43.8992 8.45082 42.0506 6.6026 39.7783 6.6026ZM39.7783 11.8539C39.1549 11.8539 38.6475 11.3465 38.6475 10.7232C38.6475 10.0994 39.1549 9.59243 39.7783 9.59243C40.402 9.59243 40.9094 10.0994 40.9094 10.7232C40.9094 11.3465 40.402 11.8539 39.7783 11.8539Z" fill="#AB23EB"/>
</svg>
