<svg width="51" height="51" viewBox="0 0 51 51" fill="none" xmlns="http://www.w3.org/2000/svg">
<g clip-path="url(#clip0)">
<path d="M49.2044 29.5226C50.7259 16.7152 48.4734 8.62959 44.4104 4.97246L44.4125 4.97034C37.8548 -1.27504 15.708 -2.19941 7.86255 5.25084C4.3393 8.89521 3.0983 14.2438 2.9623 20.8653C2.8263 27.489 2.6648 39.8968 14.2269 43.2628H14.2375L14.2269 48.4032C14.2269 48.4032 14.1483 50.4857 15.4785 50.9043C17 51.3973 17.6885 50.4305 22.4209 44.778C30.3344 45.4643 36.4119 43.8918 37.1025 43.6623C38.7005 43.1268 47.7424 41.9305 49.2044 29.5226ZM23.2008 41.1612C23.2008 41.1612 18.1922 47.4066 16.6345 49.028C16.1245 49.555 15.5657 49.5061 15.5742 48.4606C15.5742 47.7742 15.6124 39.9266 15.6124 39.9266C5.8098 37.1173 6.3878 26.5518 6.49405 21.0247C6.6003 15.4955 7.6118 10.9671 10.5953 7.91771C17.4782 1.46409 36.8943 2.90696 41.8413 7.55646C47.889 12.9178 45.7364 28.0648 45.7492 28.5812C44.506 38.9385 37.179 39.5951 35.8318 40.0435C35.2559 40.2347 29.9115 41.6096 23.2008 41.1612Z" fill="#AB23EB"/>
<path d="M49.2044 29.5226C50.7259 16.7152 48.4734 8.62962 44.4104 4.97249L44.4125 4.97037C37.8548 -1.27501 15.708 -2.19938 7.86255 5.25087C4.3393 8.89524 3.0983 14.2439 2.9623 20.8654C2.8263 27.489 2.6648 39.8969 14.2269 43.2629H14.2375L14.2269 48.4032C14.2269 48.4032 14.1483 50.4857 15.4785 50.9044C17 51.3974 17.6885 50.4305 22.4209 44.778C30.3344 45.4644 36.4119 43.8919 37.1025 43.6624C38.7005 43.1269 47.7424 41.9305 49.2044 29.5226ZM23.2008 41.1612C23.2008 41.1612 18.1922 47.4066 16.6345 49.028C16.1245 49.555 15.5657 49.5061 15.5742 48.4606C15.5742 47.7742 15.6124 39.9266 15.6124 39.9266C5.8098 37.1174 6.3878 26.5519 6.49405 21.0247C6.6003 15.4955 7.6118 10.9671 10.5953 7.91774C17.4782 1.46412 36.8943 2.90699 41.8413 7.55649C47.889 12.9179 45.7364 28.0649 45.7492 28.5812C44.506 38.9385 37.179 39.5951 35.8318 40.0435C35.2559 40.2347 29.9115 41.6096 23.2008 41.1612Z" fill="#AB23EB"/>
<path d="M25.9717 9.13113C25.1536 9.13113 25.1536 10.4061 25.9717 10.4168C32.3191 10.4656 37.5466 14.8899 37.604 23.0053C37.604 23.8616 38.8577 23.851 38.8471 22.9946H38.845C38.777 14.2503 33.0692 9.18001 25.9717 9.13113Z" fill="#AB23EB"/>
<path d="M34.321 21.6601C34.3019 22.5059 35.5535 22.5462 35.5641 21.6899C35.6683 16.8682 32.6954 12.8966 27.1087 12.478C26.2906 12.4185 26.2056 13.7041 27.0216 13.7636C31.8666 14.1312 34.4187 17.4377 34.321 21.6601Z" fill="#AB23EB"/>
<path d="M32.9822 27.1448C31.9325 26.537 30.8636 26.9153 30.4216 27.5124L29.4972 28.7088C29.0276 29.3165 28.15 29.2358 28.15 29.2358C21.7452 27.5422 20.0325 20.8399 20.0325 20.8399C20.0325 20.8399 19.9538 19.9325 20.5403 19.4459L21.6963 18.4897C22.2743 18.0307 22.6398 16.9257 22.0512 15.8398C20.4787 12.9987 19.4226 12.019 18.885 11.2668C18.3197 10.5592 17.4697 10.3998 16.5857 10.8779H16.5666C14.7285 11.9532 12.7161 13.9655 13.36 16.0374C14.4586 18.2219 16.4773 25.1855 22.9118 30.447C25.9357 32.9354 30.7212 35.4854 32.7527 36.074L32.7718 36.1038C34.7736 36.771 36.7201 34.68 37.7592 32.7867V32.7718C38.2203 31.8559 38.0673 30.9889 37.3937 30.4215C36.1995 29.257 34.3975 27.9714 32.9822 27.1448Z" fill="#AB23EB"/>
<path d="M32.9822 27.1447C31.9325 26.537 30.8636 26.9152 30.4216 27.5123L29.4972 28.7087C29.0276 29.3165 28.15 29.2357 28.15 29.2357C21.7452 27.5421 20.0325 20.8399 20.0325 20.8399C20.0325 20.8399 19.9538 19.9325 20.5403 19.4459L21.6963 18.4896C22.2743 18.0306 22.6398 16.9256 22.0512 15.8397C20.4787 12.9986 19.4226 12.019 18.885 11.2667C18.3197 10.5591 17.4697 10.3997 16.5857 10.8779H16.5666C14.7285 11.9531 12.7161 13.9655 13.36 16.0374C14.4586 18.2219 16.4773 25.1855 22.9118 30.447C25.9357 32.9353 30.7212 35.4853 32.7527 36.074L32.7718 36.1037C34.7736 36.771 36.7201 34.68 37.7592 32.7866V32.7717C38.2203 31.8558 38.0673 30.9888 37.3937 30.4215C36.1995 29.257 34.3975 27.9713 32.9822 27.1447Z" fill="#AB23EB"/>
<path d="M27.9841 17.2209C30.0262 17.3399 31.0165 18.4067 31.1227 20.5976C31.161 21.454 32.4041 21.3945 32.3659 20.5381C32.2299 17.6778 30.7381 16.0841 28.0521 15.9353C27.234 15.8864 27.1575 17.1721 27.9841 17.2209Z" fill="#AB23EB"/>
</g>
<defs>
<clipPath id="clip0">
<rect width="51" height="51" fill="white"/>
</clipPath>
</defs>
</svg>
