<svg width="389" height="51" viewBox="0 0 389 51" fill="none" xmlns="http://www.w3.org/2000/svg">
<path d="M25.5002 0.106171C11.417 0.106171 0 11.5231 0 25.6063C0 38.2373 9.19331 48.6979 21.2472 50.7235V30.9263H15.0959V23.8022H21.2472V18.5491C21.2472 12.454 24.9699 9.13247 30.408 9.13247C33.0125 9.13247 35.2507 9.32655 35.9005 9.41203V15.783L32.1288 15.7849C29.1721 15.7849 28.602 17.1896 28.602 19.2517V23.7985H35.6571L34.737 30.9227H28.602V50.8938C41.2187 49.3583 51 38.6312 51 25.599C51 11.5231 39.583 0.106171 25.5002 0.106171Z" fill="#AB23EB"/>
<g clip-path="url(#clip0)">
<path d="M218.204 29.5226C219.726 16.7152 217.473 8.62959 213.41 4.97246L213.412 4.97034C206.855 -1.27504 184.708 -2.19941 176.862 5.25084C173.339 8.89521 172.098 14.2438 171.962 20.8653C171.826 27.489 171.665 39.8968 183.227 43.2628H183.237L183.227 48.4032C183.227 48.4032 183.148 50.4857 184.478 50.9043C186 51.3973 186.688 50.4305 191.421 44.778C199.334 45.4643 205.412 43.8918 206.102 43.6623C207.7 43.1268 216.742 41.9305 218.204 29.5226ZM192.201 41.1612C192.201 41.1612 187.192 47.4066 185.634 49.028C185.124 49.555 184.566 49.5061 184.574 48.4606C184.574 47.7742 184.612 39.9266 184.612 39.9266C174.81 37.1173 175.388 26.5518 175.494 21.0247C175.6 15.4955 176.612 10.9671 179.595 7.91771C186.478 1.46409 205.894 2.90696 210.841 7.55646C216.889 12.9178 214.736 28.0648 214.749 28.5812C213.506 38.9385 206.179 39.5951 204.832 40.0435C204.256 40.2347 198.911 41.6096 192.201 41.1612Z" fill="#AB23EB"/>
<path d="M218.204 29.5226C219.726 16.7152 217.473 8.62962 213.41 4.97249L213.412 4.97037C206.855 -1.27501 184.708 -2.19938 176.862 5.25087C173.339 8.89524 172.098 14.2439 171.962 20.8654C171.826 27.489 171.665 39.8969 183.227 43.2629H183.237L183.227 48.4032C183.227 48.4032 183.148 50.4857 184.478 50.9044C186 51.3974 186.688 50.4305 191.421 44.778C199.334 45.4644 205.412 43.8919 206.102 43.6624C207.7 43.1269 216.742 41.9305 218.204 29.5226ZM192.201 41.1612C192.201 41.1612 187.192 47.4066 185.634 49.028C185.124 49.555 184.566 49.5061 184.574 48.4606C184.574 47.7742 184.612 39.9266 184.612 39.9266C174.81 37.1174 175.388 26.5519 175.494 21.0247C175.6 15.4955 176.612 10.9671 179.595 7.91774C186.478 1.46412 205.894 2.90699 210.841 7.55649C216.889 12.9179 214.736 28.0649 214.749 28.5812C213.506 38.9385 206.179 39.5951 204.832 40.0435C204.256 40.2347 198.911 41.6096 192.201 41.1612Z" fill="#AB23EB"/>
<path d="M194.972 9.13113C194.154 9.13113 194.154 10.4061 194.972 10.4168C201.319 10.4656 206.547 14.8899 206.604 23.0053C206.604 23.8616 207.858 23.851 207.847 22.9946H207.845C207.777 14.2503 202.069 9.18001 194.972 9.13113Z" fill="#AB23EB"/>
<path d="M203.321 21.6601C203.302 22.5059 204.553 22.5462 204.564 21.6899C204.668 16.8682 201.695 12.8966 196.109 12.478C195.29 12.4185 195.205 13.7041 196.021 13.7636C200.866 14.1312 203.419 17.4377 203.321 21.6601Z" fill="#AB23EB"/>
<path d="M201.982 27.1448C200.932 26.537 199.864 26.9153 199.421 27.5124L198.497 28.7088C198.027 29.3165 197.15 29.2358 197.15 29.2358C190.745 27.5422 189.032 20.8399 189.032 20.8399C189.032 20.8399 188.954 19.9325 189.54 19.4459L190.696 18.4897C191.274 18.0307 191.64 16.9257 191.051 15.8398C189.479 12.9987 188.422 12.019 187.885 11.2668C187.32 10.5592 186.47 10.3998 185.586 10.8779H185.566C183.728 11.9532 181.716 13.9655 182.36 16.0374C183.458 18.2219 185.477 25.1855 191.912 30.447C194.936 32.9354 199.721 35.4854 201.753 36.074L201.772 36.1038C203.774 36.771 205.72 34.68 206.759 32.7867V32.7718C207.22 31.8559 207.067 30.9889 206.394 30.4215C205.199 29.257 203.397 27.9714 201.982 27.1448Z" fill="#AB23EB"/>
<path d="M201.982 27.1447C200.932 26.537 199.864 26.9152 199.422 27.5123L198.497 28.7087C198.028 29.3165 197.15 29.2357 197.15 29.2357C190.745 27.5421 189.032 20.8399 189.032 20.8399C189.032 20.8399 188.954 19.9325 189.54 19.4459L190.696 18.4896C191.274 18.0306 191.64 16.9256 191.051 15.8397C189.479 12.9986 188.423 12.019 187.885 11.2667C187.32 10.5591 186.47 10.3997 185.586 10.8779H185.567C183.728 11.9531 181.716 13.9655 182.36 16.0374C183.459 18.2219 185.477 25.1855 191.912 30.447C194.936 32.9353 199.721 35.4853 201.753 36.074L201.772 36.1037C203.774 36.771 205.72 34.68 206.759 32.7866V32.7717C207.22 31.8558 207.067 30.9888 206.394 30.4215C205.199 29.257 203.397 27.9713 201.982 27.1447Z" fill="#AB23EB"/>
<path d="M196.984 17.2209C199.026 17.3399 200.016 18.4067 200.123 20.5976C200.161 21.454 201.404 21.3945 201.366 20.5381C201.23 17.6778 199.738 16.0841 197.052 15.9353C196.234 15.8864 196.157 17.1721 196.984 17.2209Z" fill="#AB23EB"/>
</g>
<path d="M375.195 0H351.805C344.193 0 338 6.19289 338 13.8052V37.1951C338 44.807 344.193 50.9999 351.805 50.9999H375.195C382.807 50.9999 389 44.807 389 37.1951V13.8052C389 6.19289 382.807 0 375.195 0V0ZM386.01 37.1951C386.01 43.1584 381.158 48.0101 375.195 48.0101H351.805C345.841 48.0101 340.99 43.1584 340.99 37.1951V13.8052C340.99 7.8415 345.841 2.98983 351.805 2.98983H375.195C381.158 2.98983 386.01 7.8415 386.01 13.8052V37.1951Z" fill="#AB23EB"/>
<path d="M363.5 11.5551C355.811 11.5551 349.555 17.8106 349.555 25.4999C349.555 33.1893 355.811 39.4448 363.5 39.4448C371.189 39.4448 377.445 33.1893 377.445 25.4999C377.445 17.8106 371.189 11.5551 363.5 11.5551ZM363.5 36.455C357.46 36.455 352.545 31.5407 352.545 25.4999C352.545 19.4596 357.46 14.5449 363.5 14.5449C369.541 14.5449 374.455 19.4596 374.455 25.4999C374.455 31.5407 369.541 36.455 363.5 36.455Z" fill="#AB23EB"/>
<path d="M377.778 6.6026C375.506 6.6026 373.658 8.45121 373.658 10.7232C373.658 12.9955 375.506 14.8441 377.778 14.8441C380.051 14.8441 381.899 12.9955 381.899 10.7232C381.899 8.45082 380.051 6.6026 377.778 6.6026ZM377.778 11.8539C377.155 11.8539 376.648 11.3465 376.648 10.7232C376.648 10.0994 377.155 9.59243 377.778 9.59243C378.402 9.59243 378.909 10.0994 378.909 10.7232C378.909 11.3465 378.402 11.8539 377.778 11.8539Z" fill="#AB23EB"/>
<defs>
<clipPath id="clip0">
<rect width="51" height="51" fill="white" transform="translate(169)"/>
</clipPath>
</defs>
</svg>
